<svg width="20" height="20" viewBox="0 0 20 20" fill="none" xmlns="http://www.w3.org/2000/svg">
<path d="M7.02947 12.3613C7.06067 11.8506 6.95431 11.3409 6.72147 10.8853C5.49047 8.40333 8.43346 5.69833 10.9345 6.75333C14.4445 8.19233 13.8655 14.7693 12.3255 17.5733M12.9915 1.30533C6.33846 -1.89567 -1.61753 5.02833 1.01847 11.9153" stroke="#051C2C" stroke-linecap="round" stroke-linejoin="round"/>
<path d="M4.81247 5.41238C5.66805 4.58092 6.72596 3.98733 7.88147 3.69038C9.03514 3.39348 10.2466 3.40486 11.3945 3.72338C12.5442 4.04219 13.5908 4.65577 14.4305 5.50338C15.2739 6.35374 15.8815 7.409 16.1935 8.56538M9.55447 9.45838C10.1695 11.1174 10.3565 12.9064 10.0965 14.6574C9.70231 16.2517 8.95299 17.7363 7.90447 19.0004M3.66747 8.05539C3.35032 9.23664 3.41472 10.4879 3.85147 11.6304C4.115 12.4713 4.07967 13.3775 3.75147 14.1954C3.42393 15.0109 2.82387 15.6876 2.05347 16.1104M15.7015 2.86938C17.4245 3.76238 18.5585 6.21938 19.0015 7.83238M16.6115 11.2324C16.8292 12.9554 16.7378 14.7035 16.3415 16.3944M6.82047 15.0424C6.40841 16.0175 5.71884 16.85 4.83747 17.4364" stroke="#051C2C" stroke-linecap="round" stroke-linejoin="round"/>
</svg>
