<svg width="30" height="30" viewBox="0 0 30 30" fill="none" xmlns="http://www.w3.org/2000/svg">
<path fill-rule="evenodd" clip-rule="evenodd" d="M8.69931 0.09C10.2763 0.0163636 10.7791 0 14.7961 0C18.8132 0 19.316 0.0177272 20.8916 0.09C22.4672 0.162273 23.5428 0.417273 24.4838 0.786818C25.4693 1.16455 26.3633 1.755 27.1027 2.51864C27.8556 3.26727 28.4363 4.17273 28.8074 5.17364C29.1731 6.12818 29.4231 7.21909 29.4957 8.81455C29.5683 10.4168 29.5844 10.9268 29.5844 15C29.5844 19.0745 29.567 19.5845 29.4957 21.1841C29.4245 22.7795 29.1731 23.8705 28.8074 24.825C28.4363 25.826 27.8546 26.733 27.1027 27.4827C26.3633 28.2464 25.4693 28.8355 24.4838 29.2118C23.5428 29.5827 22.4672 29.8364 20.8943 29.91C19.316 29.9836 18.8132 30 14.7961 30C10.7791 30 10.2763 29.9823 8.69931 29.91C7.12637 29.8377 6.05085 29.5827 5.10978 29.2118C4.12289 28.8354 3.22873 28.2453 2.48956 27.4827C1.73721 26.7336 1.155 25.8271 0.783524 24.8264C0.419193 23.8718 0.16914 22.7809 0.0965424 21.1855C0.0239452 19.5832 0.0078125 19.0732 0.0078125 15C0.0078125 10.9255 0.0252896 10.4155 0.0965424 8.81727C0.167795 7.21909 0.419193 6.12818 0.783524 5.17364C1.15555 4.17284 1.73821 3.26634 2.49091 2.51727C3.22903 1.75432 4.12229 1.16379 5.10844 0.786818C6.04951 0.417273 7.12502 0.163636 8.69796 0.09H8.69931ZM20.7719 2.79C19.2125 2.71773 18.7446 2.70273 14.7961 2.70273C10.8476 2.70273 10.3798 2.71773 8.8203 2.79C7.37777 2.85682 6.59534 3.10091 6.07371 3.30682C5.38404 3.57955 4.89064 3.90273 4.37305 4.42773C3.88241 4.91189 3.50482 5.50129 3.26796 6.15273C3.06496 6.68182 2.82431 7.47545 2.75844 8.93864C2.68719 10.5205 2.6724 10.995 2.6724 15C2.6724 19.005 2.68719 19.4795 2.75844 21.0614C2.82431 22.5245 3.06496 23.3182 3.26796 23.8473C3.50458 24.4977 3.88235 25.0882 4.37305 25.5723C4.85031 26.07 5.43244 26.4532 6.07371 26.6932C6.59534 26.8991 7.37777 27.1432 8.8203 27.21C10.3798 27.2823 10.8463 27.2973 14.7961 27.2973C18.746 27.2973 19.2125 27.2823 20.7719 27.21C22.2145 27.1432 22.9969 26.8991 23.5185 26.6932C24.2082 26.4205 24.7016 26.0973 25.2192 25.5723C25.7099 25.0882 26.0877 24.4977 26.3243 23.8473C26.5273 23.3182 26.7679 22.5245 26.8338 21.0614C26.9051 19.4795 26.9199 19.005 26.9199 15C26.9199 10.995 26.9051 10.5205 26.8338 8.93864C26.7679 7.47545 26.5273 6.68182 26.3243 6.15273C26.0554 5.45318 25.7368 4.95273 25.2192 4.42773C24.7418 3.9301 24.1608 3.54711 23.5185 3.30682C22.9969 3.10091 22.2145 2.85682 20.7719 2.79ZM12.9073 19.6241C13.9621 20.0695 15.1368 20.1296 16.2305 19.7942C17.3242 19.4587 18.2692 18.7485 18.9041 17.7849C19.5389 16.8212 19.8242 15.6639 19.7113 14.5106C19.5984 13.3573 19.0942 12.2795 18.2848 11.4614C17.7689 10.9384 17.1451 10.5379 16.4582 10.2888C15.7714 10.0397 15.0387 9.94822 14.3128 10.0208C13.5869 10.0935 12.886 10.3284 12.2603 10.7088C11.6347 11.0892 11.1 11.6056 10.6948 12.2207C10.2895 12.8359 10.0238 13.5345 9.91668 14.2663C9.80957 14.9981 9.86376 15.7449 10.0753 16.453C10.2869 17.161 10.6507 17.8127 11.1404 18.361C11.63 18.9093 12.2335 19.3407 12.9073 19.6241ZM9.42125 9.54818C10.1271 8.83224 10.965 8.26432 11.8873 7.87686C12.8095 7.48939 13.7979 7.28997 14.7961 7.28997C15.7943 7.28997 16.7828 7.48939 17.705 7.87686C18.6272 8.26432 19.4652 8.83224 20.171 9.54818C20.8768 10.2641 21.4368 11.1141 21.8187 12.0495C22.2007 12.9849 22.3974 13.9875 22.3974 15C22.3974 16.0125 22.2007 17.0151 21.8187 17.9505C21.4368 18.8859 20.8768 19.7359 20.171 20.4518C18.7455 21.8977 16.8121 22.71 14.7961 22.71C12.7802 22.71 10.8468 21.8977 9.42125 20.4518C7.99574 19.0059 7.1949 17.0448 7.1949 15C7.1949 12.9552 7.99574 10.9941 9.42125 9.54818ZM24.0832 8.43818C24.2581 8.27082 24.3981 8.06956 24.495 7.84633C24.5918 7.62309 24.6435 7.38241 24.647 7.13854C24.6506 6.89467 24.6058 6.65257 24.5154 6.42656C24.425 6.20055 24.2908 5.99524 24.1208 5.82278C23.9508 5.65032 23.7483 5.51421 23.5255 5.42252C23.3027 5.33083 23.064 5.28542 22.8236 5.28898C22.5832 5.29253 22.3459 5.34498 22.1258 5.44322C21.9057 5.54146 21.7073 5.68349 21.5423 5.86091C21.2214 6.20595 21.0457 6.66426 21.0525 7.13854C21.0593 7.61283 21.2481 8.06574 21.5788 8.40115C21.9095 8.73656 22.356 8.92804 22.8236 8.93495C23.2912 8.94187 23.743 8.76367 24.0832 8.43818Z" fill="#AF5F46"/>
</svg>
