<svg width="30" height="30" viewBox="0 0 30 30" fill="none" xmlns="http://www.w3.org/2000/svg">
<path d="M30 15C30 23.2843 23.2843 30 15 30C6.71573 30 0 23.2843 0 15C0 6.71573 6.71573 0 15 0C23.2843 0 30 6.71573 30 15Z" fill="#051C2C"/>
<path d="M12.6 19.5V29.7C12.6 29.8657 12.7343 30 12.9 30H17.1C17.2657 30 17.4 29.8657 17.4 29.7V19.5C17.4 19.3343 17.5343 19.2 17.7 19.2H20.7C20.8657 19.2 21 19.0657 21 18.9V15.3C21 15.1343 20.8657 15 20.7 15H17.7C17.5343 15 17.4 14.8659 17.4 14.7002V12C17.4 10.8 18.9 10.2 19.5 10.2H21.3C21.4657 10.2 21.6 10.0657 21.6 9.9V6.3C21.6 6.13431 21.4657 6 21.3 6H17.4C14.52 6 12.6 9 12.6 10.8V14.7C12.6 14.8657 12.4657 15 12.3 15H9.3C9.13431 15 9 15.1343 9 15.3V18.9C9 19.0657 9.13431 19.2 9.3 19.2H12.3C12.4657 19.2 12.6 19.3343 12.6 19.5Z" fill="white"/>
</svg>
