<svg width="30" height="30" viewBox="0 0 30 30" fill="none" xmlns="http://www.w3.org/2000/svg">
<path d="M0 4.2C0 1.8804 1.8804 0 4.2 0H25.8C28.1196 0 30 1.8804 30 4.2V25.8C30 28.1196 28.1196 30 25.8 30H4.2C1.8804 30 0 28.1196 0 25.8V4.2Z" fill="#AF5F46"/>
<path d="M10.8 8.1C10.8 9.59117 9.59117 10.8 8.1 10.8C6.60883 10.8 5.4 9.59117 5.4 8.1C5.4 6.60883 6.60883 5.4 8.1 5.4C9.59117 5.4 10.8 6.60883 10.8 8.1Z" fill="white"/>
<path d="M6 12.6C6 12.2686 6.26863 12 6.6 12H9.6C9.93137 12 10.2 12.2686 10.2 12.6V24C10.2 24.3314 9.93137 24.6 9.6 24.6H6.6C6.26863 24.6 6 24.3314 6 24V12.6Z" fill="white"/>
<path d="M12.6 12L15.3 12C15.6314 12 15.9 12.2686 15.9 12.6V13.2C17.1 11.7 19.3 11.6 20.4 11.7C23.8292 12.0117 24.4 15.5 24.3 17.4L24.3 24C24.3 24.3314 24.0314 24.6 23.7 24.6L21 24.6C20.6686 24.6 20.4 24.3314 20.4 24V17.4C20.3 16.6 19.74 15 18.3 15C16.86 15 16 16.8 15.9 17.4V24C15.9 24.3314 15.6314 24.6 15.3 24.6L12.6 24.6C12.2686 24.6 12 24.3314 12 24V12.6C12 12.2686 12.2686 12 12.6 12Z" fill="white"/>
</svg>
